# Blender v2.82 (sub 7) OBJ File: ''
# www.blender.org
mtllib chair.mtl
o Cube.007_Cube.008
v -8.866157 -32.006245 -6.029208
v -8.866157 -32.006245 -4.481655
v 8.156919 -32.006245 -4.481655
v 8.156919 -32.006245 -6.029208
v -8.866157 -41.291557 -6.029209
v -8.866157 -41.291557 -4.481656
v 8.156919 -41.291557 -4.481657
v 8.156919 -41.291557 -6.029209
v 6.609367 0.469147 9.446321
v 6.609367 0.469147 10.993874
v 8.156919 0.469147 10.993874
v 8.156919 0.469147 9.446321
v 6.609366 -16.553928 9.446318
v 6.609367 -16.553928 10.993871
v 8.156919 -16.553928 10.993871
v 8.156919 -16.553928 9.446318
v 6.609367 -8.042390 9.446320
v 6.609367 -8.042390 10.993873
v 8.156919 -8.042390 10.993873
v 8.156919 -8.042390 9.446320
v -8.866157 0.469147 9.446321
v -8.866157 0.469147 10.993874
v -7.318604 0.469147 10.993874
v -7.318604 0.469147 9.446321
v -8.866157 -16.553928 9.446318
v -8.866157 -16.553928 10.993871
v -7.318604 -16.553928 10.993871
v -7.318604 -16.553928 9.446318
v 6.609367 0.469149 -6.029202
v 6.609367 0.469149 -4.481650
v 8.156919 0.469149 -4.481650
v 8.156919 0.469149 -6.029203
v 6.609366 -16.553925 -6.029205
v 6.609367 -16.553925 -4.481652
v 8.156919 -16.553925 -4.481653
v 8.156919 -16.553925 -6.029205
v -8.866157 0.469149 -6.029202
v -8.866157 0.469149 -4.481650
v -7.318604 0.469149 -4.481650
v -7.318604 0.469149 -6.029203
v -8.866157 -16.553925 -6.029205
v -8.866157 -16.553925 -4.481652
v -7.318604 -16.553925 -4.481653
v -7.318604 -16.553925 -6.029205
v -8.866157 -16.530722 -6.029205
v -8.866157 -16.530724 10.993871
v 8.156919 -16.530724 10.993871
v 8.156919 -16.530722 -6.029205
v -8.866157 -18.078274 -6.029205
v -8.866157 -18.078278 10.993871
v 8.156919 -18.078278 10.993871
v 8.156919 -18.078274 -6.029205
v 6.609367 -18.077223 -6.029205
v 6.609367 -18.077223 -4.481653
v 8.156919 -18.077223 -4.481653
v 8.156919 -18.077223 -6.029206
v 6.609366 -32.034714 -6.029207
v 6.609367 -32.034714 -4.481655
v 8.156919 -32.034714 -4.481656
v 8.156919 -32.034714 -6.029208
v -8.866157 -18.077223 -6.029205
v -8.866157 -18.077223 -4.481653
v -7.318604 -18.077223 -4.481653
v -7.318604 -18.077223 -6.029206
v -8.866157 -32.034714 -6.029207
v -8.866157 -32.034714 -4.481655
v -7.318604 -32.034714 -4.481656
v -7.318604 -32.034714 -6.029208
v -7.326897 -24.268482 -6.029206
v -7.326897 -24.268484 -4.481654
v 6.617660 -24.268484 -4.481654
v 6.617660 -24.268482 -6.029207
v -7.326897 -25.816036 -6.029206
v -7.326897 -25.816036 -4.481654
v 6.617660 -25.816036 -4.481655
v 6.617660 -25.816036 -6.029207
vt 0.278011 0.278011
vt 0.721989 0.278011
vt 0.721989 0.721989
vt 0.278011 0.721989
vt 0.278011 0.278011
vt 0.721989 0.278011
vt 0.721989 0.721989
vt 0.278011 0.721989
vt 0.721989 0.278011
vt 0.721989 0.721989
vt 0.278011 0.721989
vt 0.278011 0.278011
vt 0.721989 0.278011
vt 0.278011 0.721989
vt 0.278011 0.278011
vt 0.721989 0.278011
vt 0.721989 0.721989
vt 0.721989 0.278011
vt 0.721989 0.721989
vt 0.278011 0.721989
vt 0.278011 0.278011
vt 0.721989 0.278011
vt 0.721989 0.721989
vt 0.278011 0.721989
vt 0.278011 0.278011
vt 0.721989 0.278011
vt 0.721989 0.721989
vt 0.278011 0.721989
vt 0.278011 0.473295
vt 0.721989 0.473295
vt 0.721989 0.526705
vt 0.278011 0.526705
vt 0.278011 0.473295
vt 0.721989 0.473295
vt 0.721989 0.526705
vt 0.278011 0.526705
vt 0.278011 0.473295
vt 0.721989 0.473295
vt 0.721989 0.526705
vt 0.278011 0.526705
vt 0.721989 0.473295
vt 0.721989 0.526705
vt 0.278011 0.473295
vt 0.721989 0.473295
vt 0.721989 0.526705
vt 0.278011 0.526705
vt 0.278011 0.473295
vt 0.721989 0.473295
vt 0.278011 0.526705
vt 0.278011 0.473295
vt 0.721989 0.473295
vt 0.721989 0.526705
vt 0.278011 0.526705
vt 0.278011 0.473295
vt 0.721989 0.526705
vt 0.278011 0.526705
vt 0.278011 0.278011
vt 0.721989 0.278011
vt 0.721989 0.721989
vt 0.278011 0.721989
vt 0.278011 0.278011
vt 0.721989 0.278011
vt 0.721989 0.721989
vt 0.278011 0.721989
vt 0.278011 0.473295
vt 0.721989 0.473295
vt 0.721989 0.526705
vt 0.278011 0.526705
vt 0.278011 0.473295
vt 0.721989 0.473295
vt 0.721989 0.526705
vt 0.278011 0.526705
vt 0.278011 0.473295
vt 0.721989 0.473295
vt 0.721989 0.526705
vt 0.278011 0.526705
vt 0.278011 0.473295
vt 0.721989 0.473295
vt 0.721989 0.526705
vt 0.278011 0.526705
vt 0.278011 0.278011
vt 0.721989 0.278011
vt 0.721989 0.721989
vt 0.278011 0.721989
vt 0.278011 0.278011
vt 0.721989 0.278011
vt 0.721989 0.721989
vt 0.278011 0.721989
vt 0.278011 0.473295
vt 0.721989 0.473295
vt 0.721989 0.526705
vt 0.278011 0.526705
vt 0.278011 0.473295
vt 0.721989 0.473295
vt 0.721989 0.526705
vt 0.278011 0.526705
vt 0.278011 0.473295
vt 0.721989 0.473295
vt 0.721989 0.526705
vt 0.278011 0.526705
vt 0.278011 0.473295
vt 0.721989 0.473295
vt 0.721989 0.526705
vt 0.278011 0.526705
vt 0.278011 0.278011
vt 0.721989 0.278011
vt 0.721989 0.721989
vt 0.278011 0.721989
vt 0.278011 0.278011
vt 0.721989 0.278011
vt 0.721989 0.721989
vt 0.278011 0.721989
vt 0.278011 0.473295
vt 0.721989 0.473295
vt 0.721989 0.526705
vt 0.278011 0.526705
vt 0.278011 0.473295
vt 0.721989 0.473295
vt 0.721989 0.526705
vt 0.278011 0.526705
vt 0.278011 0.473295
vt 0.721989 0.473295
vt 0.721989 0.526705
vt 0.278011 0.526705
vt 0.278011 0.473295
vt 0.721989 0.473295
vt 0.721989 0.526705
vt 0.278011 0.526705
vt 0.278011 0.278011
vt 0.721989 0.278011
vt 0.721989 0.721989
vt 0.278011 0.721989
vt 0.278011 0.278011
vt 0.721989 0.278011
vt 0.721989 0.721989
vt 0.278011 0.721989
vt 0.721989 0.278011
vt 0.721989 0.721989
vt 0.278011 0.721989
vt 0.278011 0.278011
vt 0.721989 0.278011
vt 0.278011 0.721989
vt 0.278011 0.278011
vt 0.721989 0.278011
vt 0.721989 0.721989
vt 0.721989 0.278011
vt 0.721989 0.721989
vt 0.278011 0.721989
vt 0.278011 0.278011
vt 0.721989 0.278011
vt 0.721989 0.721989
vt 0.278011 0.721989
vt 0.278011 0.278011
vt 0.721989 0.278011
vt 0.721989 0.721989
vt 0.278011 0.721989
vt 0.721989 0.278011
vt 0.721989 0.721989
vt 0.278011 0.721989
vt 0.278011 0.278011
vt 0.721989 0.278011
vt 0.278011 0.721989
vt 0.278011 0.278011
vt 0.721989 0.278011
vt 0.721989 0.721989
vt 0.721989 0.278011
vt 0.721989 0.721989
vt 0.278011 0.721989
vt 0.278011 0.278011
vt 0.721989 0.278011
vt 0.721989 0.721989
vt 0.278011 0.721989
vt 0.278011 0.278011
vt 0.721989 0.278011
vt 0.721989 0.721989
vt 0.278011 0.721989
vt 0.721989 0.278011
vt 0.721989 0.721989
vt 0.278011 0.721989
vt 0.278011 0.278011
vt 0.721989 0.278011
vt 0.278011 0.721989
vt 0.278011 0.278011
vt 0.721989 0.278011
vt 0.721989 0.721989
vt 0.721989 0.278011
vt 0.721989 0.721989
vt 0.278011 0.721989
vt 0.278011 0.278011
vt 0.721989 0.278011
vt 0.721989 0.721989
vt 0.278011 0.721989
vt 0.278011 0.278011
vt 0.721989 0.278011
vt 0.721989 0.721989
vt 0.278011 0.721989
vt 0.721989 0.278011
vt 0.721989 0.721989
vt 0.278011 0.721989
vt 0.278011 0.278011
vt 0.721989 0.278011
vt 0.278011 0.721989
vt 0.278011 0.278011
vt 0.721989 0.278011
vt 0.721989 0.721989
vt 0.721989 0.278011
vt 0.721989 0.721989
vt 0.278011 0.721989
vn 0.0000 1.0000 0.0000
vn 0.0000 -1.0000 0.0000
vn -1.0000 -0.0000 0.0000
vn 0.0000 -0.0000 1.0000
vn 1.0000 -0.0000 0.0000
vn -0.0000 0.0000 -1.0000
usemtl Material.010
s 1
f 1/1/1 2/2/1 3/3/1 4/4/1
f 5/5/2 8/6/2 7/7/2 6/8/2
f 1/1/3 5/9/3 6/10/3 2/11/3
f 2/12/4 6/13/4 7/7/4 3/14/4
f 3/15/5 7/16/5 8/17/5 4/4/5
f 5/5/6 1/18/6 4/19/6 8/20/6
f 9/21/1 10/22/1 11/23/1 12/24/1
f 13/25/2 16/26/2 15/27/2 14/28/2
f 17/29/3 13/30/3 14/31/3 18/32/3
f 18/33/4 14/34/4 15/35/4 19/36/4
f 19/37/5 15/38/5 16/39/5 20/40/5
f 17/29/6 9/41/6 12/42/6 20/40/6
f 13/43/6 17/44/6 20/45/6 16/46/6
f 11/47/5 19/48/5 20/45/5 12/49/5
f 10/50/4 18/51/4 19/52/4 11/53/4
f 9/54/3 17/44/3 18/55/3 10/56/3
f 21/57/1 22/58/1 23/59/1 24/60/1
f 25/61/2 28/62/2 27/63/2 26/64/2
f 21/65/3 25/66/3 26/67/3 22/68/3
f 22/69/4 26/70/4 27/71/4 23/72/4
f 23/73/5 27/74/5 28/75/5 24/76/5
f 25/77/6 21/78/6 24/79/6 28/80/6
f 29/81/1 30/82/1 31/83/1 32/84/1
f 33/85/2 36/86/2 35/87/2 34/88/2
f 29/89/3 33/90/3 34/91/3 30/92/3
f 30/93/4 34/94/4 35/95/4 31/96/4
f 31/97/5 35/98/5 36/99/5 32/100/5
f 33/101/6 29/102/6 32/103/6 36/104/6
f 37/105/1 38/106/1 39/107/1 40/108/1
f 41/109/2 44/110/2 43/111/2 42/112/2
f 37/113/3 41/114/3 42/115/3 38/116/3
f 38/117/4 42/118/4 43/119/4 39/120/4
f 39/121/5 43/122/5 44/123/5 40/124/5
f 41/125/6 37/126/6 40/127/6 44/128/6
f 45/129/1 46/130/1 47/131/1 48/132/1
f 49/133/2 52/134/2 51/135/2 50/136/2
f 45/129/3 49/137/3 50/138/3 46/139/3
f 46/140/4 50/141/4 51/135/4 47/142/4
f 47/143/5 51/144/5 52/145/5 48/132/5
f 49/133/6 45/146/6 48/147/6 52/148/6
f 53/149/1 54/150/1 55/151/1 56/152/1
f 57/153/2 60/154/2 59/155/2 58/156/2
f 53/149/3 57/157/3 58/158/3 54/159/3
f 54/160/4 58/161/4 59/155/4 55/162/4
f 55/163/5 59/164/5 60/165/5 56/152/5
f 57/153/6 53/166/6 56/167/6 60/168/6
f 61/169/1 62/170/1 63/171/1 64/172/1
f 65/173/2 68/174/2 67/175/2 66/176/2
f 61/169/3 65/177/3 66/178/3 62/179/3
f 62/180/4 66/181/4 67/175/4 63/182/4
f 63/183/5 67/184/5 68/185/5 64/172/5
f 65/173/6 61/186/6 64/187/6 68/188/6
f 69/189/1 70/190/1 71/191/1 72/192/1
f 73/193/2 76/194/2 75/195/2 74/196/2
f 69/189/3 73/197/3 74/198/3 70/199/3
f 70/200/4 74/201/4 75/195/4 71/202/4
f 71/203/5 75/204/5 76/205/5 72/192/5
f 73/193/6 69/206/6 72/207/6 76/208/6
