# Blender v2.82 (sub 7) OBJ File: ''
# www.blender.org
mtllib table.mtl
o Stütze.001
v -50.000000 -74.210747 -84.908829
v -50.000000 -84.210747 -84.908829
v 50.000000 -84.210747 -84.908829
v 50.000000 -74.210747 -84.908829
v -50.000000 -74.210747 -94.908829
v -50.000000 -84.210747 -94.908829
v 50.000000 -74.210747 -94.908829
v 50.000000 -84.210747 -94.908829
vn 0.0000 0.0000 1.0000
vn -1.0000 0.0000 0.0000
vn 0.0000 0.0000 -1.0000
vn 1.0000 0.0000 0.0000
vn 0.0000 -1.0000 0.0000
vn 0.0000 1.0000 0.0000
usemtl Mat.002
s 1
f 1//1 2//1 3//1 4//1
f 5//2 6//2 2//2 1//2
f 7//3 8//3 6//3 5//3
f 4//4 3//4 8//4 7//4
f 2//5 6//5 8//5 3//5
f 5//6 1//6 4//6 7//6
o Stütze_1.001
v -50.000000 -74.210716 94.414055
v -50.000000 -84.210716 94.414055
v 50.000000 -84.210716 94.414055
v 50.000000 -74.210716 94.414055
v -50.000000 -74.210716 84.414055
v -50.000000 -84.210716 84.414055
v 50.000000 -74.210716 84.414055
v 50.000000 -84.210716 84.414055
vn 0.0000 0.0000 1.0000
vn -1.0000 0.0000 0.0000
vn 0.0000 0.0000 -1.0000
vn 1.0000 0.0000 0.0000
vn 0.0000 -1.0000 0.0000
vn 0.0000 1.0000 0.0000
usemtl Mat.002
s 1
f 9//7 10//7 11//7 12//7
f 13//8 14//8 10//8 9//8
f 15//9 16//9 14//9 13//9
f 12//10 11//10 16//10 15//10
f 10//11 14//11 16//11 11//11
f 13//12 9//12 12//12 15//12
o Stütze_2.001
v -5.000000 -74.210716 90.000015
v -5.000000 -84.210716 90.000015
v 5.000000 -84.210716 90.000015
v 5.000000 -74.210716 90.000015
v -5.000000 -74.210747 -89.999985
v -5.000000 -84.210747 -89.999985
v 5.000000 -74.210747 -89.999985
v 5.000000 -84.210747 -89.999985
vn 0.0000 0.0000 1.0000
vn -1.0000 0.0000 0.0000
vn 0.0000 0.0000 -1.0000
vn 1.0000 0.0000 0.0000
vn 0.0000 -1.0000 0.0000
vn 0.0000 1.0000 -0.0000
usemtl Mat.002
s 1
f 17//13 18//13 19//13 20//13
f 21//14 22//14 18//14 17//14
f 23//15 24//15 22//15 21//15
f 20//16 19//16 24//16 23//16
usemtl Mat.003
f 18//17 22//17 24//17 19//17
f 21//18 17//18 20//18 23//18
o Platte.001
v -70.000000 -96.728302 110.000015
v -70.000000 -101.728302 110.000015
v 70.000000 -101.728302 110.000015
v 70.000000 -96.728302 110.000015
v 70.000000 -96.728333 -109.999985
v 70.000000 -101.728333 -109.999985
v -70.000000 -101.728333 -109.999985
v -70.000000 -96.728333 -109.999985
vn 0.0000 0.0000 1.0000
vn 0.0000 0.0000 -1.0000
vn 0.0000 -1.0000 0.0000
vn 0.0000 1.0000 -0.0000
vn -1.0000 0.0000 0.0000
vn 1.0000 0.0000 0.0000
usemtl Mat.003
s 1
f 25//19 26//19 27//19 28//19
f 29//20 30//20 31//20 32//20
f 26//21 31//21 30//21 27//21
f 32//22 25//22 28//22 29//22
usemtl Mat.002
f 32//23 31//23 26//23 25//23
f 28//24 27//24 30//24 29//24
o Bein.001
v 50.000000 0.789284 95.000000
v 50.000000 -99.210716 95.000015
v 60.000000 -99.210716 95.000015
v 60.000000 0.789284 95.000000
v 50.000000 0.789282 85.000000
v 50.000000 -99.210716 85.000015
v 60.000000 0.789282 85.000000
v 60.000000 -99.210716 85.000015
vn 0.0000 0.0000 1.0000
vn -1.0000 0.0000 0.0000
vn 0.0000 -0.0000 -1.0000
vn 1.0000 0.0000 0.0000
vn 0.0000 -1.0000 0.0000
vn 0.0000 1.0000 -0.0000
usemtl Mat.003
s 1
f 33//25 34//25 35//25 36//25
f 37//26 38//26 34//26 33//26
f 39//27 40//27 38//27 37//27
f 36//28 35//28 40//28 39//28
f 34//29 38//29 40//29 35//29
f 37//30 33//30 36//30 39//30
o Bein_1.001
v -60.000000 0.789284 95.000000
v -60.000000 -99.210716 95.000015
v -50.000000 -99.210716 95.000015
v -50.000000 0.789284 95.000000
v -60.000000 0.789282 85.000000
v -60.000000 -99.210716 85.000015
v -50.000000 0.789282 85.000000
v -50.000000 -99.210716 85.000015
vn 0.0000 0.0000 1.0000
vn -1.0000 0.0000 0.0000
vn 0.0000 -0.0000 -1.0000
vn 1.0000 0.0000 0.0000
vn 0.0000 -1.0000 0.0000
vn 0.0000 1.0000 -0.0000
usemtl Mat.003
s 1
f 41//31 42//31 43//31 44//31
f 45//32 46//32 42//32 41//32
f 47//33 48//33 46//33 45//33
f 44//34 43//34 48//34 47//34
f 42//35 46//35 48//35 43//35
f 45//36 41//36 44//36 47//36
o Bein_2.001
v 50.000000 0.789254 -85.000000
v 50.000000 -99.210747 -84.999985
v 60.000000 -99.210747 -84.999985
v 60.000000 0.789254 -85.000000
v 50.000000 0.789253 -95.000000
v 50.000000 -99.210747 -94.999985
v 60.000000 0.789253 -95.000000
v 60.000000 -99.210747 -94.999985
vn 0.0000 0.0000 1.0000
vn -1.0000 0.0000 0.0000
vn 0.0000 -0.0000 -1.0000
vn 1.0000 0.0000 0.0000
vn 0.0000 -1.0000 0.0000
vn 0.0000 1.0000 -0.0000
usemtl Mat.003
s 1
f 49//37 50//37 51//37 52//37
f 53//38 54//38 50//38 49//38
f 55//39 56//39 54//39 53//39
f 52//40 51//40 56//40 55//40
f 50//41 54//41 56//41 51//41
f 53//42 49//42 52//42 55//42
o Bein_3.001
v -60.000000 0.789254 -85.000000
v -60.000000 -99.210747 -84.999985
v -50.000000 -99.210747 -84.999985
v -50.000000 0.789254 -85.000000
v -60.000000 0.789253 -95.000000
v -60.000000 -99.210747 -94.999985
v -50.000000 0.789253 -95.000000
v -50.000000 -99.210747 -94.999985
vn 0.0000 0.0000 1.0000
vn -1.0000 0.0000 0.0000
vn 0.0000 -0.0000 -1.0000
vn 1.0000 0.0000 0.0000
vn 0.0000 -1.0000 0.0000
vn 0.0000 1.0000 -0.0000
usemtl Mat.003
s 1
f 57//43 58//43 59//43 60//43
f 61//44 62//44 58//44 57//44
f 63//45 64//45 62//45 61//45
f 60//46 59//46 64//46 63//46
f 58//47 62//47 64//47 59//47
f 61//48 57//48 60//48 63//48
